<svg width="38" height="43" viewBox="0 0 38 43" fill="none" xmlns="http://www.w3.org/2000/svg">
<path d="M0 42.9991C0.452088 42.117 1.04117 41.0169 1.52109 40.1405C1.95398 39.3496 2.35136 38.6691 2.90039 37.7275L2.94262 37.6555C3.21234 37.1938 3.51565 36.6726 3.87367 36.0525C5.01013 34.0829 5.7329 32.8591 6.26081 31.9655C7.01525 30.687 7.43086 29.9834 8.18722 28.5878C10.4342 24.4413 11.682 22.393 12.782 20.5846C13.283 19.7611 13.7562 18.9846 14.2707 18.0948C16.129 14.8803 19.3399 12.8828 23.3038 12.8828H29.5323L12.1386 42.9991H0Z" fill="#2E98FE"/>
<path d="M0.0126979 0H36.9901L30.6043 11.1342H0.0126979V0Z" fill="#475AFE"/>
<path d="M14.166 42.9749C15.5599 40.5139 16.8657 38.2034 18.0518 36.1033L18.0728 36.0652C19.4783 33.5807 21.7374 32.0371 24.9017 32.0371L37.1611 32.0049V43.0004L14.167 42.9749H14.166Z" fill="#09C0FE"/>
</svg>
